HIERARCHY
ROOT Hips
{
	OFFSET -89.023270 92.344872 461.057312
	CHANNELS 6 Xposition Yposition Zposition Zrotation Yrotation Xrotation 
	JOINT LeftUpLeg
	{
		OFFSET 0.103461 1.857843 10.548504
		CHANNELS 3 Zrotation Yrotation Xrotation
		JOINT LeftLeg
		{
			OFFSET 43.500004 -0.000027 -0.000002
			CHANNELS 3 Zrotation Yrotation Xrotation
			JOINT LeftFoot
			{
				OFFSET 42.372192 0.000011 -0.000013
				CHANNELS 3 Zrotation Yrotation Xrotation
				JOINT LeftToe
				{
					OFFSET 17.300003 0.000000 0.000006
					CHANNELS 3 Zrotation Yrotation Xrotation
					End Site
					{
						OFFSET 0.000000 0.000000 0.000000
					}
				}
			}
		}
	}
	JOINT RightUpLeg
	{
		OFFSET 0.103458 1.857838 -10.548502
		CHANNELS 3 Zrotation Yrotation Xrotation
		JOINT RightLeg
		{
			OFFSET 43.500038 -0.000031 0.000004
			CHANNELS 3 Zrotation Yrotation Xrotation
			JOINT RightFoot
			{
				OFFSET 42.372269 -0.000023 0.000023
				CHANNELS 3 Zrotation Yrotation Xrotation
				JOINT RightToe
				{
					OFFSET 17.299999 -0.000004 0.000006
					CHANNELS 3 Zrotation Yrotation Xrotation
					End Site
					{
						OFFSET 0.000000 0.000000 0.000000
					}
				}
			}
		}
	}
	JOINT Spine
	{
		OFFSET 6.901967 -2.603724 0.000002
		CHANNELS 3 Zrotation Yrotation Xrotation
		JOINT Spine1
		{
			OFFSET 12.588103 0.000000 -0.000002
			CHANNELS 3 Zrotation Yrotation Xrotation
			JOINT Spine2
			{
				OFFSET 12.343197 -0.000011 0.000001
				CHANNELS 3 Zrotation Yrotation Xrotation
				JOINT Neck
				{
					OFFSET 25.832895 0.000021 0.000000
					CHANNELS 3 Zrotation Yrotation Xrotation
					JOINT Head
					{
						OFFSET 11.766616 0.000003 -0.000004
						CHANNELS 3 Zrotation Yrotation Xrotation
						End Site
						{
							OFFSET 0.000000 0.000000 0.000000
						}
					}
				}
				JOINT LeftShoulder
				{
					OFFSET 19.745905 -1.480368 6.000099
					CHANNELS 3 Zrotation Yrotation Xrotation
					JOINT LeftArm
					{
						OFFSET 11.284123 -0.000031 -0.000016
						CHANNELS 3 Zrotation Yrotation Xrotation
						JOINT LeftForeArm
						{
							OFFSET 33.000053 0.000012 0.000029
							CHANNELS 3 Zrotation Yrotation Xrotation
							JOINT LeftHand
							{
								OFFSET 25.200005 0.000027 0.000003
								CHANNELS 3 Zrotation Yrotation Xrotation
								End Site
								{
									OFFSET 0.000000 0.000000 0.000000
								}
							}
						}
					}
				}
				JOINT RightShoulder
				{
					OFFSET 19.746098 -1.480366 -6.000079
					CHANNELS 3 Zrotation Yrotation Xrotation
					JOINT RightArm
					{
						OFFSET 11.284134 -0.000013 -0.000001
						CHANNELS 3 Zrotation Yrotation Xrotation
						JOINT RightForeArm
						{
							OFFSET 33.000088 0.000019 0.000003
							CHANNELS 3 Zrotation Yrotation Xrotation
							JOINT RightHand
							{
								OFFSET 25.199781 0.000131 0.000422
								CHANNELS 3 Zrotation Yrotation Xrotation
								End Site
								{
									OFFSET 0.000000 0.000000 0.000000
								}
							}
						}
					}
				}
			}
		}
	}
}
MOTION
Frames: 10
Frame Time: 0.033333
-89.023270 92.344872 461.057312 88.994872 -2.699022 94.401124 168.952761 -5.744993 170.484609 -21.863000 2.170984 -3.436708 82.037156 0.936100 -6.246904 21.454548 0.003086 -0.000003 171.456080 2.816805 -168.072268 -17.943180 -4.204108 7.085397 84.166454 -3.082615 8.776620 21.454558 -0.003109 -0.000018 5.437882 -0.039540 -0.231891 0.863106 -0.081987 -0.454196 0.545017 -0.084659 -0.453657 9.885738 10.660036 0.971997 -26.970657 -4.606017 4.631200 -70.586023 -82.613447 -111.881927 4.336781 16.308178 -11.361419 -44.182499 -29.549471 2.548961 10.670396 -11.773480 -2.780504 -107.779565 86.776631 74.163997 6.101099 -20.664138 14.936263 -33.929480 16.220924 -1.424742 4.616355 19.030106 -0.428352 
-89.023376 92.344872 461.057098 88.994879 -2.699113 94.401554 168.952379 -5.744992 170.484677 -21.863096 2.170994 -3.436516 82.037020 0.935970 -6.246811 21.454555 0.003100 0.000001 171.455903 2.816802 -168.072077 -17.943160 -4.204125 7.085567 84.166434 -3.082719 8.776625 21.454555 -0.003098 -0.000017 5.437935 -0.039550 -0.231891 0.863198 -0.081983 -0.454202 0.545114 -0.084659 -0.453654 9.884943 10.660030 0.971894 -26.969796 -4.605300 4.630775 -70.586330 -82.613392 -111.881538 4.336526 16.308180 -11.361430 -44.182598 -29.549529 2.548960 10.670367 -11.773550 -2.780360 -107.777926 86.776570 74.165773 6.101170 -20.664403 14.936176 -33.929583 16.220924 -1.424747 4.616352 19.030247 -0.428357 
-89.047012 92.346046 461.010895 88.994886 -2.725607 94.493714 168.868982 -5.744994 170.500236 -21.878009 2.170994 -3.396967 82.006345 0.912554 -6.221823 21.454550 0.003087 0.000001 171.412176 2.804204 -168.049141 -17.946124 -4.204118 7.129321 84.158729 -3.112505 8.776621 21.454558 -0.003114 -0.000017 5.448277 -0.039547 -0.231882 0.883888 -0.081991 -0.458975 0.565797 -0.084649 -0.458444 9.645558 10.666509 0.943653 -26.736530 -4.428378 4.529685 -70.751717 -82.598031 -111.717545 4.268756 16.305151 -11.356346 -44.202611 -29.562333 2.548960 10.642310 -11.786881 -2.748806 -107.353498 86.744420 74.594292 6.125019 -20.720470 14.910993 -33.950685 16.220922 -1.424752 4.610933 19.089277 -0.436449 
-89.067993 92.350029 460.967712 88.994879 -2.764904 94.584139 168.784438 -5.744996 170.524784 -21.874284 2.170996 -3.364384 81.968718 0.894830 -6.192013 21.454550 0.003101 0.000001 171.372315 2.794594 -168.050125 -17.921339 -4.201432 7.185658 84.143177 -3.151116 8.776625 21.454560 -0.003106 -0.000016 5.456818 -0.039546 -0.231893 0.900969 -0.081995 -0.464067 0.582871 -0.084647 -0.463571 9.309454 10.701116 0.896968 -26.498298 -4.271020 4.432103 -71.031741 -82.583230 -111.438764 4.220644 16.295359 -11.394220 -44.233183 -29.565758 2.548954 10.573408 -11.785302 -2.694281 -106.920615 86.713773 75.031035 6.157032 -20.750309 14.862193 -33.936580 16.210028 -1.424749 4.685976 19.162031 -0.359344 
-89.087242 92.355652 460.928986 88.994886 -2.816321 94.681708 168.690537 -5.744989 170.561858 -21.861320 2.170995 -3.330774 81.927750 0.877733 -6.155751 21.454553 0.003092 -0.000000 171.343669 2.782808 -168.062583 -17.859063 -4.194539 7.253901 84.124059 -3.197960 8.776621 21.454557 -0.003115 -0.000018 5.461635 -0.039549 -0.236661 0.910599 -0.077430 -0.473614 0.592504 -0.080160 -0.473126 8.994393 10.791261 0.845140 -26.402156 -4.176865 4.372529 -71.245307 -82.597765 -111.223552 4.231099 16.304406 -11.474634 -44.274744 -29.553662 2.548948 10.540558 -11.786519 -2.651412 -106.595190 86.680169 75.360202 6.175584 -20.743728 14.831857 -33.864423 16.199301 -1.424745 4.771619 19.180691 -0.243534 
-89.105560 92.362190 460.894806 88.990863 -2.876308 94.779584 168.590201 -5.744990 170.592963 -21.846153 2.170989 -3.289458 81.888777 0.855940 -6.116722 21.454550 0.003093 -0.000001 171.317250 2.765511 -168.067992 -17.779462 -4.191535 7.319197 84.100898 -3.242360 8.776620 21.454557 -0.003096 -0.000017 5.462941 -0.035581 -0.242380 0.913165 -0.069443 -0.485005 0.595090 -0.072238 -0.484565 8.755293 10.952889 0.792401 -26.471479 -4.157106 4.358498 -71.229830 -82.638220 -111.234787 4.300362 16.350482 -11.552819 -44.303954 -29.537187 2.548963 10.555189 -11.788222 -2.632735 -106.576175 86.657185 75.381205 6.210522 -20.713437 14.854729 -33.797798 16.195215 -1.424754 4.816259 19.165130 -0.173931 
-89.125076 92.370178 460.864990 88.978616 -2.932916 94.868828 168.497625 -5.754401 170.597539 -21.830241 2.170985 -3.230854 81.854169 0.823451 -6.073353 21.454553 0.003082 0.000001 171.288044 2.738095 -168.067296 -17.710148 -4.195173 7.376290 84.065661 -3.279385 8.776622 21.454558 -0.003108 -0.000018 5.465519 -0.030083 -0.247490 0.918315 -0.058428 -0.495181 0.600223 -0.061275 -0.494830 8.537287 11.168750 0.735306 -26.568029 -4.184293 4.369587 -70.977680 -82.665588 -111.484581 4.384922 16.422732 -11.579419 -44.285314 -29.522379 2.548954 10.589834 -11.788620 -2.651279 -106.855072 86.640246 75.102329 6.271771 -20.681780 14.885212 -33.790817 16.210447 -1.424749 4.820129 19.162511 -0.163487 
-89.146141 92.376373 460.838013 88.965994 -2.975916 94.946221 168.419611 -5.775102 170.568115 -21.825844 2.172572 -3.151548 81.830830 0.777177 -6.030383 21.454553 0.003086 -0.000000 171.260095 2.709896 -168.063211 -17.664196 -4.201686 7.424299 84.035915 -3.310423 8.776625 21.454558 -0.003108 -0.000019 5.472551 -0.025137 -0.252166 0.932347 -0.048456 -0.504506 0.614257 -0.051366 -0.504207 8.319299 11.367441 0.669525 -26.599031 -4.190659 4.356751 -70.633281 -82.677480 -111.828099 4.468577 16.472302 -11.537779 -44.195603 -29.499891 2.544542 10.623043 -11.766865 -2.714637 -107.147404 86.621593 74.810229 6.332552 -20.664602 14.884997 -33.827588 16.239249 -1.424750 4.806005 19.177983 -0.171596 
-89.165047 92.379372 460.811890 88.957852 -3.006654 95.004708 168.360283 -5.795302 170.513555 -21.835838 2.180178 -3.089609 81.818180 0.736555 -6.016636 21.454551 0.003091 0.000001 171.224960 2.692597 -168.043117 -17.653039 -4.208638 7.450449 84.020199 -3.327827 8.774473 21.454563 -0.003104 -0.000017 5.480848 -0.020423 -0.254753 0.948945 -0.038963 -0.511156 0.630850 -0.041919 -0.510908 8.172671 11.461492 0.607684 -26.598813 -4.102635 4.280230 -70.402332 -82.710565 -112.055974 4.558645 16.462660 -11.459044 -44.048269 -29.471662 2.537893 10.665022 -11.727316 -2.822358 -107.180339 86.620200 74.777307 6.376818 -20.663972 14.869559 -33.849253 16.258738 -1.424747 4.781036 19.174499 -0.192000 
-89.178963 92.379791 460.787598 88.953740 -3.034907 95.030129 168.306079 -5.808397 170.452056 -21.855856 2.195385 -3.043627 81.814137 0.704437 -6.015269 21.454551 0.003098 0.000001 171.172873 2.687806 -168.001535 -17.672894 -4.217438 7.442962 84.016579 -3.323638 8.766560 21.454558 -0.003103 -0.000017 5.485877 -0.014578 -0.254854 0.958959 -0.027273 -0.509823 0.640886 -0.030209 -0.509646 8.132977 11.433280 0.562712 -26.604550 -3.929474 4.152840 -70.410556 -82.763943 -112.042369 4.634141 16.419541 -11.407236 -43.906652 -29.462082 2.532737 10.705361 -11.673940 -2.914116 -107.025670 86.658360 74.929750 6.414803 -20.663569 14.849513 -33.822960 16.258569 -1.424744 4.737105 19.135140 -0.238151 
